<svg xmlns="http://www.w3.org/2000/svg" width="46" height="46" viewBox="0 0 46 46" fill="none">
  <g clip-path="url(#clip0_214_1812)">
    <path d="M44.8307 21.4673C45.8909 20.4336 46.2654 18.9168 45.8078 17.5085C45.3501 16.1002 44.1557 15.0931 42.6903 14.8801L31.5098 13.2555C31.4893 13.2525 31.4718 13.2397 31.4627 13.2213L26.4629 3.09018C25.8077 1.76229 24.4807 0.937185 22.9997 0.937185C21.5188 0.937185 20.192 1.76229 19.5368 3.09018L14.5368 13.2213C14.5277 13.2397 14.5102 13.2523 14.4897 13.2555L3.30933 14.8801C1.84402 15.0931 0.649533 16.1002 0.191916 17.5085C-0.265701 18.9168 0.108751 20.4336 1.169 21.4673L9.25919 29.3533C9.27397 29.3677 9.28072 29.3884 9.27713 29.4086L7.3673 40.5441C7.11696 42.0034 7.70587 43.4508 8.90374 44.3211C10.1018 45.1918 11.6602 45.3041 12.9708 44.6151L22.9708 39.3578C22.989 39.3481 23.0109 39.3483 23.0291 39.3578L33.0291 44.6151C33.5992 44.9148 34.216 45.0628 34.8298 45.0628C35.627 45.0628 36.4192 44.8129 37.0959 44.3211C38.2938 43.4508 38.8825 42.0035 38.6324 40.5438L36.7225 29.4086C36.719 29.3884 36.7259 29.3677 36.7405 29.3533L44.8307 21.4673ZM32.9776 30.0507L34.8874 41.1859C34.8925 41.2155 34.894 41.2244 34.8625 41.2472C34.8311 41.27 34.8231 41.2657 34.7967 41.2518L24.7964 35.9943C23.6714 35.403 22.3279 35.403 21.2024 35.9943L11.2024 41.2516C11.176 41.2653 11.168 41.2697 11.1365 41.2469C11.1051 41.2241 11.1065 41.2153 11.1116 41.1859L13.0214 30.0505C13.2363 28.7976 12.8211 27.5199 11.9108 26.6323L3.82098 18.7465C3.79966 18.7256 3.79312 18.7194 3.80515 18.6825C3.81718 18.6456 3.82604 18.6443 3.8556 18.6399L15.036 17.0152C16.2942 16.8324 17.3813 16.0428 17.9438 14.9027L22.9438 4.77142C22.9571 4.74482 22.9609 4.73659 22.9997 4.73659C23.0386 4.73659 23.0426 4.74482 23.0557 4.77142L28.0557 14.9027C28.6184 16.0428 29.7053 16.8326 30.9635 17.0152L42.1439 18.6399C42.1734 18.6443 42.1823 18.6456 42.1943 18.6825C42.2063 18.7194 42.1998 18.7258 42.1785 18.7465L34.0883 26.6325C33.1781 27.5199 32.7629 28.7978 32.9776 30.0507Z" fill="#172B6D"/>
  </g>
  <defs>
    <clipPath id="clip0_214_1812">
      <rect width="46" height="46" />
    </clipPath>
  </defs>
</svg>